<svg xmlns="http://www.w3.org/2000/svg" width="37" height="42" viewBox="0 0 37 42"><path fill="#D90B16" d="M26.055.4h9.553c.54 0 .961.393.99.923v9.862c0 .577-.43 1.015-.99 1.015-.559 0-.99-.438-.99-1.015V3.93L16.434 22.444a.973.973 0 0 1-1.427 0l-3.672-3.739-6.82 6.943.016-.009a.594.594 0 0 0-.169.12l-.22.224.165.267c2.264 3.669 6.264 5.982 10.589 5.982 6.866 0 12.472-5.707 12.472-12.69l-.007-.36a13.139 13.139 0 0 0-.224-1.914l-.04-.206 1.641-1.672.09.316c.34 1.27.519 2.577.519 3.88 0 3.439-1.21 6.772-3.34 9.384l-.227.278 10.413 10.557a1.034 1.034 0 0 1 0 1.473.93.93 0 0 1-.714.322c-.234 0-.523-.13-.713-.322l-10.422-10.61-.283.24c-2.577 2.178-5.807 3.397-9.209 3.397C6.867 34.305.4 27.722.4 19.585.4 11.45 6.91 4.821 14.895 4.821l.398.006c2.648.075 5.188.905 7.43 2.375l.285.191-1.436 1.462-.365-.23a12.255 12.255 0 0 0-6.312-1.73c-6.867 0-12.472 5.707-12.472 12.69 0 1.371.192 2.686.584 3.883l.205.625 7.452-7.587a.972.972 0 0 1 1.427 0l3.672 3.739L33.218 2.474h-7.12c-.559 0-1.033-.483-1.033-1.06 0-.576.43-1.014.99-1.014z"/></svg>