<svg xmlns="http://www.w3.org/2000/svg" width="42" height="49" viewBox="0 0 42 49"><path fill="#D90B16" d="M38.712 23.1a4.026 4.026 0 0 0-3.79.982l-7.083 7.13-.139-.36a4.015 4.015 0 0 0-3.543-2.575l-.207-.005H8.307a7.679 7.679 0 0 0-5.262 2.082l-.221.217-2.28 2.302A1.013 1.013 0 0 0 .543 34.3c.187.188.44.292.705.29.22 0 .431-.076.604-.211l.099-.089 2.28-2.301a5.703 5.703 0 0 1 3.807-1.698l.269-.005H23.95a2.05 2.05 0 0 1 2.043 2.06 2.053 2.053 0 0 1-1.89 2.053l-.153.006h-9.06a1 1 0 0 0-.995 1.006c0 .517.385.942.879 1l.116.007h9.064a3.99 3.99 0 0 0 2.628-.955l.178-.16 9.401-9.638a2.05 2.05 0 0 1 2.836.079c.733.74.802 1.903.179 2.731l-.11.135-11.85 11.973a6.786 6.786 0 0 1-4.555 2.024l-.303.006H7.137a.992.992 0 0 0-.605.206l-.099.087-4.082 4.122a1.018 1.018 0 0 0 0 1.428.987.987 0 0 0 1.313.083l.094-.084 3.72-3.745.177-.073h14.703a8.756 8.756 0 0 0 6.04-2.405l.22-.216L40.49 30.03a4.12 4.12 0 0 0 1.129-3.994 4.07 4.07 0 0 0-2.908-2.934zM9.09 18.124a1 1 0 0 0-.988.89l-.007.117v5.464c0 .556.446 1.007.995 1.007a1 1 0 0 0 .988-.89l.006-.117V19.13c0-.556-.446-1.007-.994-1.007zm6.213 0a1 1 0 0 0-.988.89l-.007.117v5.464c0 .556.446 1.007.995 1.007a1 1 0 0 0 .988-.89l.007-.117V19.13c0-.556-.446-1.007-.995-1.007zm6.214-1.85a1 1 0 0 0-.988.89l-.007.117v7.314c0 .556.446 1.007.995 1.007a1 1 0 0 0 .988-.89l.006-.117V17.28a1 1 0 0 0-.994-1.006zm6.169-4.91a1 1 0 0 0-.988.889l-.007.117v12.225c0 .556.446 1.007.995 1.007a1 1 0 0 0 .988-.89l.006-.117V12.369a1 1 0 0 0-.994-1.006zM29.132.86a.99.99 0 0 0-1.19-.57l-.109.039-5.476 2.362-.104.053a1.015 1.015 0 0 0-.09 1.687c.25.187.57.244.866.159l.125-.045 3.252-1.417-.233.57c-3.116 7.63-11.744 11.296-19.306 8.222a.991.991 0 0 0-1.202.596c-.19.484.017 1.035.456 1.26a16.632 16.632 0 0 0 6.288 1.239c6.726-.008 12.795-4.041 15.471-10.247l.14-.335.226-.554 1.311 3.063a.994.994 0 0 0 1.313.523c.47-.206.704-.735.558-1.22l-.04-.111L29.132.86z"/></svg>