<svg xmlns="http://www.w3.org/2000/svg" width="40" height="40" viewBox="0 0 40 40"><path fill="#D90B16" d="M1.126.275L1.02.28a.836.836 0 0 0-.738.726l-.007.105v37.763l.005.106c.042.387.346.69.726.738l.105.007h37.763l.106-.005a.836.836 0 0 0 .738-.726l.007-.105V1.126l-.005-.106a.836.836 0 0 0-.726-.738L38.89.275H1.126zM16.21 1.947l.195.081 5.21 5.222.082.073c.119.094.26.153.41.173l.114.007h15.83v30.55H1.948V1.947h14.264zm10.785 9.509a.84.84 0 0 0-.64.001l-.1.05-9.745 5.4-.133.035h-1.924l-.206.006a4.171 4.171 0 1 0-2.067 7.635l.182.114.134.08v4.106l.005.202a4.17 4.17 0 0 0 4.165 3.973.837.837 0 0 0 .83-.73l.006-.106v-6.356l8.74 4.853.111.055a.83.83 0 0 0 .739-.055.836.836 0 0 0 .403-.61l.007-.109v-4.68l.422-.066a3.593 3.593 0 0 0 .006-7.062l-.19-.03-.238-.032v-5.892l-.006-.113a.84.84 0 0 0-.312-.559l-.092-.063-.097-.047zM15.831 25.28v6.028l-.574-.36a2.503 2.503 0 0 1-1.08-1.87l-.008-.19V25.28h1.662zm-.551.549h-.561v3.059c0 .482.18.94.49 1.29l.071.074V25.83zm10.55-12.186v14.935l-8.327-4.628v-5.68l8.328-4.627zm1.673 6.071l.364.125a1.93 1.93 0 0 1 .152 3.594l-.152.06-.364.124v-3.903zm-11.673-1.1v4.994h-1.396l-.169-.006a2.498 2.498 0 0 1 .014-4.983l.164-.005h1.387zm12.221 1.934v2.236l.095-.074c.263-.229.435-.552.47-.908l.006-.135c0-.41-.18-.787-.476-1.043l-.095-.076zM5.556 4.169a1.387 1.387 0 1 1-.002 2.774 1.387 1.387 0 0 1 .002-2.774zm4.444 0a1.386 1.386 0 1 1 0 2.772 1.386 1.386 0 0 1 0-2.772zm4.444 0a1.387 1.387 0 1 1 0 2.774 1.387 1.387 0 0 1 0-2.774zm23.609-2.222v3.884H22.678l-.195-.081-3.802-3.803h19.372z"/></svg>