<svg xmlns="http://www.w3.org/2000/svg" width="42" height="42" viewBox="0 0 42 42"><path fill="#D90B16" d="M19.135 18.01l.119.017.104.024L37.1 23.848l.113.045c.577.274.751 1.04.341 1.472l-.084.077-3.83 3.988 8.079 8.079-.527.71c.248.327.767.278.537.662l-.056.083-2.627 2.42-.1.045c-.358.154-.806.31-1.154.354l-.125.011a.647.647 0 0 1-.298-.042l-.07-.049-8.078-8.078-3.734 3.796-.08.088a.904.904 0 0 1-.503.249l-.109.01a.978.978 0 0 1-.903-.557l-.045-.114-5.799-17.746-.027-.119c-.115-.626.299-1.155.886-1.22l.112-.007.116.005zm-4.903 16.26c.474.474.506 1.148.095 1.649l-.095.104-4.926 5.103-.106.093a1.337 1.337 0 0 1-.642.267l-.14.013a1.377 1.377 0 0 1-1.035-.38c-.314-.426-.338-1.27-.073-1.664l.073-.089 5.096-5.096.105-.095c.214-.176.46-.27.71-.284h.124c.29.016.577.142.814.379zm5.84-14.198l5.011 15.335 4.128-4.196 8.771 8.771.127-.047 1.324-1.221-.368-.483.414-.558-8.218-8.219 4.184-4.359-15.373-5.023zM8.787 22.994l.131.006c.646.067 1.126.62 1.126 1.251 0 .73-.421 1.196-1.115 1.252l-.142.005h-7.03l-.142-.005C.921 25.447.5 24.98.5 24.25c0-.63.48-1.184 1.126-1.25l.131-.007h7.03zm.307-15.719l.142.07.105.069 4.885 5.059.096.105c.416.506.384 1.18-.09 1.654s-1.148.506-1.648.095l-.105-.095-5.102-4.926-.073-.117-.06-.132c-.161-.411-.158-.996.024-1.44l.077-.159.045-.068.068-.045c.404-.227.99-.271 1.464-.13l.172.06zm31.03-.14l.16.002c.217.012.438.06.632.145l.14.07.089.059.069.079a1.43 1.43 0 0 1 0 1.715l-.095.107-5.09 4.914-.105.096c-.506.416-1.18.384-1.654-.09s-.506-1.148-.095-1.648l.095-.105 5.096-5.096.082-.068a1.15 1.15 0 0 1 .52-.17l.156-.01zM24.25.5c.73 0 1.196.421 1.252 1.115l.005.142v7.03l-.005.142c-.052.648-.462 1.058-1.11 1.11l-.142.005c-.63 0-1.184-.48-1.25-1.126l-.007-.131v-7.03L23 1.626a1.264 1.264 0 0 1 1.126-1.12L24.251.5z"/></svg>