<svg xmlns="http://www.w3.org/2000/svg" width="44" height="44" viewBox="0 0 44 44"><path fill="#D90B16" d="M24.676 0a2.298 2.298 0 0 1 2.286 2.237l.489 2.444c1.013.316 1.995.725 2.933 1.222l2.176-1.466a2.372 2.372 0 0 1 3.165.06l3.789 3.79c.83.891.83 2.273 0 3.165l-1.418 2.115c.301.57.57 1.159.807 1.76.146.399.28.806.403 1.222l2.506.489A2.299 2.299 0 0 1 44 19.323v5.354c.02 1.26-.978 2.3-2.237 2.334l-2.506.489a17.213 17.213 0 0 1-1.222 2.933l1.418 2.115c.83.892.83 2.274 0 3.165l-3.789 3.79a2.446 2.446 0 0 1-3.166 0l-2.114-1.419c-.938.497-1.92.907-2.933 1.223l-.49 2.505A2.297 2.297 0 0 1 24.676 44h-5.353a2.298 2.298 0 0 1-2.285-2.237l-.49-2.505a17.213 17.213 0 0 1-2.933-1.222l-2.114 1.417a2.37 2.37 0 0 1-3.166 0l-3.788-3.789a2.322 2.322 0 0 1-.062-3.165l1.418-2.066a17.36 17.36 0 0 1-.806-1.76 18.998 18.998 0 0 1-.404-1.222l-2.505-.489A2.297 2.297 0 0 1 0 24.677v-5.354a2.298 2.298 0 0 1 2.237-2.285l2.444-.49a17.237 17.237 0 0 1 1.222-2.932L4.485 11.5a2.322 2.322 0 0 1 .062-3.165l3.788-3.79a2.373 2.373 0 0 1 3.166-.06l2.114 1.43c.938-.497 1.92-.907 2.934-1.223l.489-2.505A2.297 2.297 0 0 1 19.323 0zm-.012 1.748h-5.353a.537.537 0 0 0-.526.525v.171l-.61 3.08a.907.907 0 0 1-.636.673c-1.238.34-2.428.833-3.545 1.466a.905.905 0 0 1-.929 0l-2.615-1.76a.493.493 0 0 1-.122-.11.564.564 0 0 0-.758 0L5.805 9.57a.552.552 0 0 0 0 .758.53.53 0 0 1 .098.134l1.785 2.628a.858.858 0 0 1 0 .917 15.574 15.574 0 0 0-1.467 3.544.907.907 0 0 1-.684.636l-3.093.61h-.158a.539.539 0 0 0-.526.526v5.366a.537.537 0 0 0 .526.525h.158l3.068.612a.905.905 0 0 1 .685.635c.348 1.235.84 2.425 1.466 3.545a.852.852 0 0 1 0 .916l-1.76 2.616a.497.497 0 0 1-.098.134.538.538 0 0 0 0 .758l3.765 3.777a.564.564 0 0 0 .758 0 .493.493 0 0 1 .122-.11l2.628-1.748a.953.953 0 0 1 .5-.147c.15 0 .297.038.428.11a15.6 15.6 0 0 0 3.545 1.467c.319.09.563.348.635.672l.612 3.105v.17c.006.288.238.52.525.526h5.366a.537.537 0 0 0 .525-.525v-.171l.575-3.093a.904.904 0 0 1 .635-.672 15.53 15.53 0 0 0 3.544-1.467.912.912 0 0 1 .93 0l2.615 1.76c.046.03.088.067.122.11a.562.562 0 0 0 .758 0l3.776-3.776a.55.55 0 0 0 0-.758.552.552 0 0 1-.097-.134l-1.76-2.616a.854.854 0 0 1 0-.917 15.571 15.571 0 0 0 1.466-3.544.907.907 0 0 1 .685-.636l3.092-.61h.159a.538.538 0 0 0 .525-.526l.037-5.366a.537.537 0 0 0-.525-.525h-.172l-3.092-.612a.902.902 0 0 1-.684-.635 16.315 16.315 0 0 0-1.467-3.545.856.856 0 0 1 0-.916l1.736-2.591a.539.539 0 0 1 .097-.135.537.537 0 0 0 0-.758l-3.764-3.776a.562.562 0 0 0-.758 0 .493.493 0 0 1-.122.11l-2.615 1.76a.912.912 0 0 1-.93 0 15.556 15.556 0 0 0-3.544-1.467.901.901 0 0 1-.635-.672l-.611-3.105v-.17a.538.538 0 0 0-.526-.526zM34.417 18.1a.883.883 0 0 1 .856-.22c.305.088.541.33.623.636.279 1.14.418 2.31.416 3.483a14.314 14.314 0 0 1-25.96 8.311.88.88 0 0 1 .086-1.137l6.856-6.807a.878.878 0 0 1 1.222 0l4.791 4.779a1.467 1.467 0 0 0 2.066 0zm.05 2.432l-7.86 7.847a3.263 3.263 0 0 1-4.558 0l-4.168-4.168-5.659 5.671A12.576 12.576 0 0 0 22 34.552c6.926-.014 12.538-5.626 12.552-12.553.002-.49-.027-.98-.086-1.467zm-16.83-12.05a14.314 14.314 0 0 1 15.95 5.23.882.882 0 0 1-.086 1.137l-8.556 8.556a.88.88 0 0 1-1.222 0l-4.791-4.78a1.468 1.468 0 0 0-2.017-.097l-7.333 7.333a.903.903 0 0 1-.623.257.752.752 0 0 1-.232 0 .907.907 0 0 1-.624-.636 14.498 14.498 0 0 1-.415-3.483 14.312 14.312 0 0 1 9.95-13.517zm14.14 5.634A12.55 12.55 0 0 0 9.448 22c-.004.506.024 1.013.085 1.516l6.099-6.136a3.264 3.264 0 0 1 4.559 0l4.168 4.168z"/></svg>