<svg xmlns="http://www.w3.org/2000/svg" width="41" height="38" viewBox="0 0 41 38"><path fill="#D90B16" d="M20.28 25.592c.562 0 1.081.351 1.297.877l1.038 2.498 2.68.263c.606.044 1.082.394 1.428 1.008.173.57 0 1.139-.433 1.533l-2.075 1.797.605 2.673c.13.57-.086 1.14-.562 1.49-.216.176-.519.263-.821.263-.26 0-.52-.087-.735-.219l-2.335-1.446-2.335 1.446a1.353 1.353 0 0 1-1.557-.044 1.432 1.432 0 0 1-.562-1.49l.605-2.673-2.075-1.797a1.46 1.46 0 0 1-.433-1.533c.217-.57.692-.964 1.254-1.008l2.681-.22 1.038-2.541a1.416 1.416 0 0 1 1.297-.877zm-.043 1.534l-.995 2.41a1.496 1.496 0 0 1-1.21.877l-2.551.219 1.945 1.71c.433.394.606.92.476 1.445l-.605 2.542 2.205-1.359c.216-.131.475-.219.735-.219s.519.088.735.22l2.205 1.358-.605-2.542a1.536 1.536 0 0 1 .475-1.402l1.946-1.753-2.55-.22c-.563-.043-.995-.393-1.212-.876l-.994-2.41zM6.66 23.446c.562 0 1.08.35 1.297.876l1.038 2.541 2.68.22c.606.043 1.081.438 1.34 1.007.174.57 0 1.14-.432 1.534l-2.075 1.797.605 2.673c.13.57-.086 1.14-.562 1.49-.216.175-.519.263-.821.263-.26 0-.52-.088-.735-.22L6.66 34.183l-2.335 1.446a1.353 1.353 0 0 1-1.557-.044c-.476-.35-.692-.92-.476-1.49l.606-2.673-2.076-1.797A1.464 1.464 0 0 1 .39 28.09c.216-.57.692-.964 1.254-1.008l2.68-.219 1.038-2.541a1.418 1.418 0 0 1 1.298-.877zm27.24 0l.14.006c.507.053.96.388 1.158.87l1.037 2.541 2.681.22c.606.043 1.081.438 1.427 1.007.173.57 0 1.14-.432 1.534l-2.076 1.797.606 2.673c.13.57-.087 1.14-.562 1.49-.217.175-.52.263-.822.263-.26 0-.519-.088-.735-.22l-2.335-1.445-2.335 1.446a1.353 1.353 0 0 1-1.557-.044 1.436 1.436 0 0 1-.562-1.49l.606-2.673-2.076-1.797c-.432-.394-.605-.964-.432-1.534.216-.57.692-.964 1.254-1.008l2.68-.219 1.038-2.541a1.417 1.417 0 0 1 1.298-.877zm-27.284 1.62l-.994 2.41a1.497 1.497 0 0 1-1.21.877l-2.552.22 1.946 1.708c.432.395.605.92.476 1.447l-.606 2.541 2.205-1.358c.217-.132.476-.22.735-.22.26 0 .52.088.736.22l2.205 1.358-.606-2.541c-.086-.57.087-1.096.476-1.447l1.946-1.709-2.551-.219c-.562-.044-.995-.394-1.211-.876l-.995-2.41zm27.241 0l-.994 2.41a1.497 1.497 0 0 1-1.21.877l-2.552.22 1.946 1.708c.432.395.605.92.475 1.447l-.605 2.541 2.205-1.358a1.44 1.44 0 0 1 .735-.22c.26 0 .52.088.735.22l2.206 1.358-.606-2.541c-.086-.57.087-1.096.476-1.447l1.946-1.709-2.552-.219c-.562-.044-.994-.394-1.21-.876l-.995-2.41zM8 0c3.027 0 5.492 2.498 5.492 5.565 0 1.71-.779 3.287-2.033 4.295a5.776 5.776 0 0 1 3.546 3.155 4.926 4.926 0 0 1 2.032-1.14c-1.254-1.007-2.032-2.54-2.032-4.294 0-3.067 2.465-5.565 5.491-5.565 3.027 0 5.492 2.498 5.492 5.565 0 1.71-.779 3.287-2.033 4.295.779.263 1.47.657 2.076 1.183.692-1.49 1.989-2.673 3.546-3.155-1.254-1.008-2.033-2.542-2.033-4.295 0-3.067 2.465-5.565 5.492-5.565 3.026 0 5.491 2.498 5.491 5.565 0 1.71-.821 3.287-2.032 4.295 2.119.701 3.762 2.585 4.021 4.908l.476 4.163c.086.92-.52 1.797-1.34 1.972-2.12.482-4.368.701-6.616.701-1.557 0-3.114-.131-4.584-.35-.043.789-.605 1.49-1.383 1.665-2.12.482-4.367.701-6.616.701-2.292 0-4.497-.263-6.616-.7-.778-.176-1.34-.877-1.383-1.666a30.76 30.76 0 0 1-4.54.35c-2.292 0-4.497-.263-6.616-.7-.865-.176-1.47-1.053-1.254-2.017l.476-4.163A5.796 5.796 0 0 1 4.54 9.86C3.288 8.852 2.51 7.318 2.51 5.565 2.509 2.498 4.973 0 8 0zm14.183 13.19h-3.546c-2.162 0-3.978 1.622-4.237 3.813l-.476 4.163c0 .132.086.263.216.307 4.021.877 8.562.877 12.583 0 .13 0 .216-.175.173-.307l-.476-4.163c-.26-2.19-2.075-3.812-4.237-3.812zM9.6 11.176H6.14c-2.161 0-3.977 1.621-4.237 3.812l-.475 4.164c-.044.175.043.306.216.306 3.502.79 7.394.877 10.853.307l.346-2.936c.13-.877.432-1.71.865-2.41-.476-1.885-2.162-3.243-4.108-3.243zm25.122 0h-3.46c-1.988 0-3.674 1.402-4.15 3.286.432.702.735 1.49.821 2.367l.303 2.892c3.589.57 7.524.482 11.026-.263.173 0 .26-.131.173-.306l-.475-4.164c-.26-2.19-2.076-3.812-4.238-3.812zM20.41 3.593c-2.205 0-3.978 1.797-3.978 4.032 0 2.235 1.816 4.032 3.978 4.032 2.205 0 3.978-1.797 3.978-4.032 0-2.235-1.773-4.032-3.978-4.032zm12.582-2.015c-2.205 0-3.978 1.796-3.978 4.031 0 2.235 1.773 4.032 3.978 4.032l.2-.005c2.112-.104 3.779-1.86 3.779-4.027 0-2.235-1.773-4.031-3.979-4.031zm-25.078 0c-2.206 0-3.978 1.796-3.978 4.031 0 2.235 1.772 4.032 3.978 4.032l.199-.005c2.112-.104 3.779-1.86 3.779-4.027 0-2.235-1.773-4.031-3.978-4.031z"/></svg>