<svg xmlns="http://www.w3.org/2000/svg" width="119" height="96" viewBox="0 0 119 96"><g fill="#FFF" fill-rule="evenodd"><path d="M8.597 89.723L4.26 85.046v4.677H0V72h4.26v9.65l4.186-4.234h5.288l-6.04 5.956 6.09 6.351H8.598zm11.887.492c-1.353 0-2.569-.282-3.647-.849a6.333 6.333 0 0 1-2.531-2.363c-.61-1.01-.915-2.145-.915-3.409 0-1.263.305-2.404.915-3.422a6.398 6.398 0 0 1 2.531-2.387c1.078-.574 2.294-.862 3.647-.862 1.337 0 2.544.288 3.621.862 1.078.574 1.918 1.366 2.52 2.375.601 1.01.902 2.154.902 3.434 0 1.264-.3 2.4-.903 3.41-.601 1.009-1.44 1.796-2.519 2.362-1.077.567-2.284.85-3.62.85zm0-3.52c.802 0 1.466-.295 1.992-.886.527-.59.79-1.329.79-2.215 0-.902-.263-1.653-.79-2.252-.526-.6-1.19-.899-1.992-.899-.819 0-1.495.3-2.03.899-.535.599-.802 1.35-.802 2.252 0 .886.267 1.625.802 2.215.535.591 1.211.886 2.03.886zm7.902 3.028h4.26V72h-4.26v17.723zm12.213.492c-1.353 0-2.568-.282-3.646-.849a6.327 6.327 0 0 1-2.531-2.363c-.61-1.01-.915-2.145-.915-3.409 0-1.263.305-2.404.915-3.422a6.395 6.395 0 0 1 2.53-2.387c1.079-.574 2.294-.862 3.647-.862 1.337 0 2.545.288 3.622.862 1.078.574 1.918 1.366 2.52 2.375.6 1.01.901 2.154.901 3.434 0 1.264-.3 2.4-.902 3.41-.601 1.009-1.441 1.796-2.519 2.362-1.077.567-2.285.85-3.622.85zm0-3.52c.803 0 1.467-.295 1.993-.886.526-.59.79-1.329.79-2.215 0-.902-.264-1.653-.79-2.252-.526-.6-1.19-.899-1.993-.899-.818 0-1.495.3-2.03.899-.534.599-.801 1.35-.801 2.252 0 .886.267 1.625.802 2.215.534.591 1.211.886 2.03.886zm13.668-9.772c.985 0 1.875.226 2.669.677.794.451 1.42 1.128 1.88 2.03.46.903.689 2.003.689 3.3v6.793h-1.504V82.93c0-1.526-.355-2.7-1.065-3.52-.71-.82-1.633-1.23-2.77-1.23-.835 0-1.612.23-2.33.689a6.189 6.189 0 0 0-1.83 1.821v9.034h-1.504V72h1.504v7.139c1.053-1.477 2.473-2.216 4.26-2.216zm12.915 13.292c-1.337 0-2.519-.278-3.547-.837a6.048 6.048 0 0 1-2.406-2.338c-.576-1-.864-2.15-.864-3.446 0-1.296.288-2.449.864-3.458a6.125 6.125 0 0 1 2.406-2.364c1.028-.566 2.21-.849 3.547-.849 1.336 0 2.519.283 3.546.85a6.103 6.103 0 0 1 2.406 2.363c.577 1.009.865 2.162.865 3.458 0 1.296-.288 2.445-.865 3.446a6.048 6.048 0 0 1-2.406 2.338c-1.027.559-2.21.837-3.546.837zm0-1.255c1.036 0 1.959-.225 2.77-.677a4.797 4.797 0 0 0 1.892-1.895c.45-.812.676-1.744.676-2.794s-.226-1.986-.676-2.806a4.855 4.855 0 0 0-1.893-1.92c-.81-.46-1.733-.69-2.77-.69-1.035 0-1.958.23-2.769.69-.81.46-1.44 1.1-1.892 1.92-.451.82-.677 1.756-.677 2.806s.226 1.982.677 2.794a4.79 4.79 0 0 0 1.892 1.895c.81.452 1.734.677 2.77.677zm7.677.763h1.503V72H74.86v17.723zM89.854 72v17.723h-1.178l-.25-1.625a6.883 6.883 0 0 1-2.181 1.576 5.875 5.875 0 0 1-2.431.541c-1.17 0-2.227-.286-3.17-.861a6.11 6.11 0 0 1-2.232-2.375c-.542-1.01-.814-2.138-.814-3.385 0-1.247.272-2.38.814-3.397.544-1.017 1.287-1.817 2.231-2.4s2.001-.874 3.17-.874c.836 0 1.647.18 2.432.542.785.36 1.487.894 2.105 1.6V72h1.504zm-5.89 16.96c.802 0 1.583-.184 2.344-.553.76-.37 1.44-.9 2.042-1.588v-6.573a5.972 5.972 0 0 0-2.03-1.538 5.59 5.59 0 0 0-2.356-.53c-.936 0-1.775.234-2.519.702-.743.468-1.324 1.116-1.741 1.945-.419.828-.627 1.752-.627 2.769 0 1.001.213 1.912.639 2.732a4.899 4.899 0 0 0 1.754 1.933 4.594 4.594 0 0 0 2.494.701zm7.376.763h1.504V77.416H91.34v12.307zm.05-14.794h1.504v-2.24h-1.503v2.24zm8.554 1.994c1.003 0 1.91.222 2.72.665.81.443 1.458 1.116 1.942 2.018.485.903.727 2.01.727 3.323v6.794h-1.504V82.93c0-1.542-.376-2.72-1.127-3.532-.753-.812-1.696-1.218-2.833-1.218-.802 0-1.545.2-2.23.602a6.292 6.292 0 0 0-1.805 1.613v9.33H94.33v-12.31h1.153l.276 1.55c1.07-1.362 2.464-2.043 4.185-2.043zm19.056.493v13.489c0 1.592-.514 2.839-1.542 3.742-1.027.902-2.501 1.353-4.423 1.353-1.754 0-3.162-.39-4.223-1.169-1.061-.78-1.592-1.85-1.592-3.212h1.354c0 .951.413 1.715 1.24 2.289.827.575 1.9.861 3.22.861 1.505 0 2.624-.332 3.36-.996.735-.665 1.102-1.621 1.102-2.868v-2.93a6.882 6.882 0 0 1-2.218 1.662c-.827.386-1.658.578-2.494.578-1.17 0-2.226-.286-3.17-.861a6.098 6.098 0 0 1-2.23-2.375c-.544-1.01-.816-2.138-.816-3.385 0-1.247.272-2.38.815-3.397a6.19 6.19 0 0 1 2.23-2.4c.945-.583 2.002-.874 3.171-.874.87 0 1.721.205 2.557.615a6.389 6.389 0 0 1 2.18 1.773l.301-1.895H119zm-6.065 11.544c.835 0 1.654-.2 2.456-.603a6.27 6.27 0 0 0 2.105-1.735v-6.154a6.02 6.02 0 0 0-2.08-1.699 5.563 5.563 0 0 0-2.481-.59c-.936 0-1.776.233-2.52.701-.742.468-1.323 1.116-1.741 1.945-.418.828-.627 1.752-.627 2.769 0 1.001.214 1.912.64 2.732a4.891 4.891 0 0 0 1.754 1.933 4.594 4.594 0 0 0 2.494.701zM27.894 15.918a34.25 34.25 0 0 1 1.031-1.854c-6.944 15.738-.49 34.469 14.988 42.468C59.996 64.842 79.89 58.5 88.2 42.412c4.743-9.183 4.71-19.608.817-28.412 6.002 10.067 6.846 22.923 1.092 34.065-8.852 17.137-30.045 23.894-47.178 15.04-17.133-8.853-23.888-30.05-15.036-47.187"/><path d="M65.999 34.999L53 35V22h13l-.001 12.999m-1.734 5.615l-5.247 5.247-5.208-5.207-14.593-.012.002 7.177 11.648.017L59.031 56l8.225-8.225 3.293-.001.002-7.16h-6.286zm7.337-24.19l.014 6.31 5.244 5.244-5.218 5.218-.014 14.578h7.191l.003-11.628L87 27.968l-8.22-8.22-.008-3.322-7.17-.002zM46.377 33.277l-5.24-5.24 5.203-5.23.012-14.582-7.195.016v11.616L31 28.055l8.216 8.216v3.291l7.164.002-.003-6.287zm1.053-17.884l.002-7.17 3.292-.008L58.939 0l.003.003V.002l8.196 8.159h11.617l.015 7.187-14.58-.003-5.228-5.204-.002-.002-5.24 5.24-6.29.014z"/></g></svg>